<?xml version="1.0" encoding="utf-8"?>
<?xml-stylesheet type="text/xsl" href="rss1.xsl"?>
<rss version="2.0" xmlns:atom="http://www.w3.org/2005/Atom" xmlns:content="http://purl.org/rss/1.0/modules/content/" xmlns:dc="http://purl.org/dc/elements/1.1/" xmlns:media="http://search.yahoo.com/mrss/">
<channel>
 <title>Getty</title>
 <link>http://www.gettyimg.com/</link>
 <atom:link href="http://www.gettyimg.com/" rel="self" type="application/rss+xml" />

 
                <item>
                <title><![CDATA[【SD】DVD - B.U.G. Mafia – Viaţa Noastră (PAL-DVD)]]></title>
                <link><![CDATA[https://sharemania.us/threads/b-u-g-mafia-%E2%80%93-via%C5%A3a-noastr%C4%83-pal-dvd.251688/]]></link>
                <description><![CDATA[<article>
<blockquote class="messageText SelectQuoteContainer ugc baseHtml">
<img src="https://i.ibb.co/xLKV7Kd/R-7483777-1442413644-6326.jpg" class="bbCodeImage LbImage" alt="[​IMG]" data-url="https://i.ibb.co/xLKV7Kd/R-7483777-1442413644-6326.jpg" style=""><br>
<br>
TiTLE.........: BUG Mafia - Viata noastra (DVD Edition) <br>
GENRE.........: Rap/Hip-Hop Music <br>
RUNTiME.......: 00:45:00<br>
ViDEO.........: PAL 4:3 (720x576) VBR, 9694kbit/s<br>
AUDiO.........: English, LinearPCM, 2 ch, 1536kbit/s, 16 bits<br>
SAMPLE........: YES <br>
MENU..........: Yes <br>
EXTRAS........: None<br>
<br>
01. Dupa Blocuri<br>
02. Un 2 Si Trei de 0 (cu Villy)<br>
03. Poezie De Strada (remix)<br>
04. Cine E Cu Noi (cu Nico)<br>
05. Romaneste<br>
06. O Lume Nebuna, Nebuna De Tot (cu Villy)<br>
07. Strazile (cu Mario)<br>
08. Viata Noastra (cu Adriana Vlad)<br>
09. Pantelimonul Petrece (cu Adriana Vlad)<br>
10. Cu Talpile Arse (cu Jasmine)<br>
<br>
<div class="bbCodeBlock bbCodeVfcHH HiddenContent">
<div class="attribution type">Hidden Content:</div>
<blockquote>You must either reply or click 'Like' to see the hidden information contained here.</blockquote>
</div>
<div class="messageTextEndMarker">&nbsp;</div>
</blockquote>
</article>]]></description>
                <author><![CDATA[ovivo]]></author>
                </item>

                
                <item>
                <title><![CDATA[【Bugs!】SUNMI - STRANGER (Bugs! 4K)]]></title>
                <link><![CDATA[https://sharemania.us/threads/sunmi-stranger-bugs-4k.251689/]]></link>
                <description><![CDATA[<article>
<blockquote class="messageText SelectQuoteContainer ugc baseHtml">
<span data-s9e-mediaembed="youtube" style="display:inline-block;width:100%;max-width:640px"><span style="display:block;overflow:hidden;position:relative;padding-bottom:56.25%"><iframe allowfullscreen="" loading="lazy" scrolling="no" style="background:url(https://i.ytimg.com/vi/D9tqmw_dL6I/hqdefault.jpg) 50% 50% / cover;border:0;height:100%;left:0;position:absolute;width:100%" src="https://www.youtube.com/embed/D9tqmw_dL6I"></iframe></span></span><br>
<div class="ToggleTriggerAnchor bbCodeSpoilerContainer">
<button type="button" class="button bbCodeSpoilerButton ToggleTrigger Tooltip JsOnly" data-target="> .SpoilerTarget"><span>Spoiler: <span class="SpoilerTitle">MediaInfo</span></span></button>
<div class="SpoilerTarget bbCodeSpoilerText">General<br>
Complete name : ./bugs/SUNMI - STRANGER (Bugs! 4K).mp4<br>
Format : MPEG-4<br>
Format profile : Base Media / Version 2<br>
Codec ID : mp42 (mp42/mp41)<br>
File size : 2.29 GiB<br>
Duration : 4 min 10 s<br>
Overall bit rate mode : Variable<br>
Overall bit rate : 78.6 Mb/s<br>
Frame rate : 23.976 FPS<br>
Encoded date : 2023-10-13 08:46:00 UTC<br>
Tagged date : 2023-10-13 08:53:22 UTC<br>
TIM : 01:00:00:00<br>
TSC : 24000<br>
TSZ : 1001<br>
<br>
Video<br>
ID : 1<br>
Format : AVC<br>
Format/Info : Advanced Video Codec<br>
Format profile : Main@L6<br>
Format settings : CABAC / 4 Ref Frames<br>
Format settings, CABAC : Yes<br>
Format settings, Reference frames : 4 frames<br>
Codec ID : avc1<br>
Codec ID/Info : Advanced Video Coding<br>
Duration : 4 min 10 s<br>
Bit rate : 78.2 Mb/s<br>
Width : 4 448 pixels<br>
Height : 3 096 pixels<br>
Display aspect ratio : 1.437<br>
Frame rate mode : Constant<br>
Frame rate : 23.976 (24000/1001) FPS<br>
Color space : YUV<br>
Chroma subsampling : 4:2:0<br>
Bit depth : 8 bits<br>
Scan type : Progressive<br>
Bits/(Pixel*Frame) : 0.237<br>
Stream size : 2.28 GiB (100%)<br>
Language : English<br>
Encoded date : 2023-10-13 08:46:04 UTC<br>
Tagged date : 2023-10-13 08:46:04 UTC<br>
Color range : Limited<br>
Color primaries : BT.709<br>
Transfer characteristics : BT.709<br>
Matrix coefficients : BT.709<br>
Codec configuration box : avcC<br>
<br>
Audio<br>
ID : 2<br>
Format : AAC LC<br>
Format/Info : Advanced Audio Codec Low Complexity<br>
Codec ID : mp4a-40-2<br>
Duration : 4 min 10 s<br>
Source duration : 4 min 10 s<br>
Bit rate mode : Variable<br>
Bit rate : 317 kb/s<br>
Maximum bit rate : 448 kb/s<br>
Channel(s) : 2 channels<br>
Channel layout : L R<br>
Sampling rate : 48.0 kHz<br>
Frame rate : 46.875 FPS (1024 SPF)<br>
Compression mode : Lossy<br>
Stream size : 9.46 MiB (0%)<br>
Source stream size : 9.46 MiB (0%)<br>
Language : English<br>
Encoded date : 2023-10-13 08:46:03 UTC<br>
Tagged date : 2023-10-13 08:46:03 UTC</div>
</div>
<div class="bbCodeBlock bbCodeVfcHH HiddenContent">
<div class="attribution type">Hidden Content:</div>
<blockquote>You must either reply or click 'Like' to see the hidden information contained here.</blockquote>
</div>
<div class="messageTextEndMarker">&nbsp;</div>
</blockquote>
</article>]]></description>
                <author><![CDATA[Once14]]></author>
                </item>

                </channel></rss>